<svg width="1456" height="332" viewBox="0 0 1456 332" fill="none" xmlns="http://www.w3.org/2000/svg">
<path d="M704.275 148.543C704.362 156.893 706.766 164.715 711.488 171.946C716.209 179.239 722.8 185.648 731.174 191.115C739.456 196.641 749.162 200.995 760.21 204.111C771.162 207.226 783.009 208.815 795.656 208.871H835.734C848.383 208.815 860.228 207.226 871.18 204.111C882.228 200.996 891.934 196.644 900.306 191.115C908.59 185.646 915.182 179.239 919.902 171.946C924.622 164.715 927.027 156.893 927.115 148.543V119.262C927.027 110.97 924.624 103.268 919.902 95.9778C915.181 88.7451 908.59 82.3345 900.306 76.8084C891.934 71.2199 882.228 66.8705 871.18 63.7545C860.228 60.5773 848.383 58.9944 835.734 58.932H795.656C783.277 59.1085 771.427 60.6397 760.297 63.5219C749.162 66.4041 739.367 70.7546 730.992 76.5758L718.705 85.0414V13.7751C718.614 12.3057 717.905 11.1312 716.566 10.2461C715.142 9.3043 713.361 8.8334 711.216 8.8334C709.259 8.8334 707.653 9.30492 706.32 10.2461C704.986 11.1312 704.362 12.3057 704.271 13.7751V148.546L704.275 148.543ZM718.705 128.082V118.203C718.792 111.383 720.838 104.973 724.937 98.9752C729.033 92.9776 734.647 87.6858 741.77 83.1583C748.896 78.574 757.089 74.9855 766.265 72.3983C775.526 69.8111 785.323 68.5175 795.656 68.4608H835.733C846.332 68.5176 856.308 69.8111 865.571 72.4607C874.834 75.1103 883.03 78.7533 890.064 83.3971C897.1 88.0438 902.621 93.453 906.631 99.5669C910.637 105.683 912.597 112.268 912.689 119.266V148.547C912.597 155.546 910.641 162.13 906.631 168.246C902.62 174.362 897.1 179.772 890.064 184.416C883.029 189.062 874.834 192.707 865.571 195.352C856.308 197.939 846.332 199.29 835.733 199.352H795.656C785.057 199.295 775.081 197.945 765.818 195.352C756.554 192.708 748.359 189.062 741.325 184.416C734.289 179.769 728.767 174.362 724.76 168.246C720.84 162.13 718.791 155.545 718.705 148.547V128.086L718.705 128.082ZM979.486 204.288C979.576 205.581 980.286 206.642 981.625 207.522C983.049 208.401 984.83 208.815 986.964 208.872C988.921 208.815 990.527 208.4 991.866 207.522C993.199 206.636 993.823 205.581 993.914 204.288V66.3405C993.828 64.8711 993.205 63.6967 991.866 62.8116C990.527 61.8698 988.927 61.3989 986.964 61.3989C984.825 61.3989 983.043 61.8704 981.625 62.8116C980.286 63.6967 979.577 64.8711 979.486 66.3405V204.288ZM986.967 19.7704C984.204 19.8334 981.979 20.4172 980.196 21.5973C978.33 22.8285 977.433 24.298 977.348 26.1249C977.434 27.9518 978.33 29.4212 980.196 30.5957C981.983 31.8325 984.208 32.4169 986.967 32.4736C989.73 32.4168 991.954 31.8268 993.737 30.5957C995.603 29.4212 996.5 27.9518 996.585 26.1249C996.495 24.3036 995.603 22.8342 993.737 21.5973C991.955 20.4229 989.726 19.8328 986.967 19.7704ZM1078.35 131.08V69.1643H1170.26C1172.4 69.1012 1174.18 68.6348 1175.61 67.7516C1176.94 66.8098 1177.65 65.6353 1177.74 64.2226C1177.65 62.929 1176.94 61.8681 1175.61 60.9886C1174.18 60.1036 1172.4 59.6951 1170.26 59.6327H1078.35V16.2965C1078.26 15.0029 1077.55 13.8852 1076.21 13.0058C1074.79 12.1207 1073.01 11.7122 1070.86 11.6555C1068.9 11.7123 1067.3 12.1245 1065.96 13.0058C1064.63 13.8908 1064.01 15.0029 1063.92 16.2965V148.657C1064 157.006 1066.41 164.769 1071.13 172.059C1075.85 179.292 1082.44 185.642 1090.81 191.169C1099.1 196.695 1108.8 200.99 1119.85 204.106C1130.8 207.221 1142.65 208.809 1155.3 208.866H1175.6C1177.56 208.809 1179.17 208.395 1180.5 207.516C1181.84 206.631 1182.46 205.576 1182.55 204.282C1182.46 202.869 1181.83 201.695 1180.5 200.753C1179.17 199.868 1177.56 199.403 1175.6 199.34H1155.3C1144.7 199.283 1134.72 197.99 1125.46 195.34C1116.2 192.696 1108 189.05 1100.97 184.404C1093.93 179.82 1088.41 174.408 1084.4 168.292C1080.48 162.237 1078.43 155.652 1078.35 148.653V131.072L1078.35 131.08ZM1440.13 96.3307C1440.13 95.6272 1440.22 94.9747 1440.4 94.4471C1440.58 93.857 1440.67 93.3294 1440.67 92.8017C1440.58 89.0401 1439.15 85.2161 1436.47 81.3944C1433.71 77.5136 1430.33 74.1616 1426.23 71.28L1424.63 70.2247C1419.46 66.8716 1413.58 64.2271 1406.99 62.4025C1400.4 60.5813 1393.46 59.6395 1386.15 59.6395H1299.05C1289.07 59.7026 1279.99 61.3472 1271.71 64.5188C1263.42 67.696 1256.74 71.9858 1251.75 77.454C1246.77 82.9234 1244.18 89.0985 1244.01 95.9784C1244.1 103.093 1246.41 109.09 1250.95 113.971C1255.5 118.85 1261.55 122.85 1269.3 125.908C1276.96 129.023 1285.6 131.491 1295.22 133.315C1304.84 135.136 1314.81 136.611 1325.06 137.61C1335.38 138.671 1345.36 139.55 1355.07 140.316C1364.69 141.082 1373.51 141.961 1381.35 142.903C1386.96 143.607 1392.66 144.548 1398.44 145.842C1404.23 147.136 1409.67 148.9 1414.65 151.073C1419.73 153.309 1423.74 156.191 1426.86 159.66C1429.89 163.189 1431.49 167.419 1431.58 172.537C1431.49 177.416 1429.62 181.827 1426.06 185.825C1422.49 189.825 1417.69 192.998 1411.63 195.349C1405.57 197.704 1398.89 198.935 1391.5 198.998H1296.38C1289.97 198.934 1283.82 197.937 1277.85 195.877C1271.8 193.818 1266.81 191.117 1262.89 187.646C1258.97 184.236 1257.01 180.355 1256.83 176.062C1256.83 175.532 1256.83 175.001 1256.83 174.417C1256.83 173.77 1256.83 173.066 1256.83 172.181C1256.75 170.769 1256.03 169.594 1254.7 168.652C1253.27 167.767 1251.58 167.302 1249.35 167.239C1247.04 167.303 1245.43 167.83 1244.37 168.828C1243.3 169.827 1242.59 171.063 1242.32 172.476C1241.96 173.889 1241.87 175.183 1241.87 176.414C1241.96 180.765 1243.48 184.882 1246.51 188.762C1249.53 192.643 1253.54 196.113 1258.71 199.11C1263.87 202.112 1269.66 204.523 1276.17 206.225C1282.58 207.932 1289.35 208.812 1296.38 208.874H1391.5C1401.93 208.756 1411.28 207.053 1419.56 203.757C1427.84 200.466 1434.35 196.052 1439.15 190.584C1443.97 185.115 1446.46 179.118 1446.55 172.534C1446.46 164.595 1443.7 158.126 1438.53 153.129C1433.28 148.074 1426.15 144.074 1417.24 141.193C1408.34 138.254 1398.27 135.961 1387.23 134.371C1376.1 132.782 1364.61 131.488 1352.76 130.433C1340.91 129.372 1329.43 128.198 1318.29 126.904C1307.25 125.667 1297.18 123.846 1288.28 121.554C1279.37 119.318 1272.25 116.084 1266.99 112.027C1261.74 107.971 1259.06 102.619 1258.97 95.9761C1259.06 91.0968 1260.93 86.6838 1264.49 82.6856C1268.06 78.6857 1272.87 75.5131 1278.92 73.1614C1284.98 70.8068 1291.66 69.5757 1299.05 69.5132H1386.16C1391.59 69.5132 1396.67 70.2168 1401.56 71.5103C1406.38 72.8607 1410.74 74.801 1414.48 77.2736L1416.62 78.6807C1419.11 80.6778 1421.25 83.0323 1422.94 85.6206C1424.72 88.2645 1425.61 90.7949 1425.71 93.1461C1425.71 93.8496 1425.71 94.9106 1425.71 96.3233C1425.79 97.6169 1426.42 98.6779 1427.75 99.5573C1429.09 100.442 1430.69 100.851 1432.65 100.913C1434.87 100.856 1436.66 100.442 1437.99 99.5573C1439.42 98.6779 1440.13 97.6169 1440.13 96.3233L1440.13 96.3307Z" fill="#00467E"/>
<path d="M704.514 148.214C704.514 181.38 745.661 208.545 795.89 208.545H835.976C886.204 208.545 927.353 181.38 927.353 148.214V118.933C927.353 86.1193 886.203 58.6023 835.976 58.6023H795.89C771.313 58.9572 747.798 64.5999 731.231 76.2461L718.941 84.7094V13.4409C718.941 10.6212 715.736 8.49924 711.461 8.49924C707.722 8.49924 704.514 10.6212 704.514 13.4409V148.214ZM718.941 127.749V117.876C718.941 90.7048 754.745 68.1289 795.89 68.1289H835.976C878.189 68.1289 912.923 91.0599 912.923 118.932V148.214C912.923 176.086 878.188 199.017 835.976 199.017H795.89C753.677 199.017 718.941 176.086 718.941 148.214V127.749ZM979.298 203.956C979.298 206.424 982.503 208.546 986.783 208.546C990.516 208.546 993.725 206.424 993.725 203.956V66.0092C993.725 63.1894 990.519 61.0789 986.783 61.0789C982.505 61.0789 979.298 63.1894 979.298 66.0092V203.956ZM986.783 19.4391C981.438 19.4391 977.162 22.2702 977.162 25.7896C977.162 29.3185 981.44 32.1423 986.783 32.1423C992.127 32.1423 996.397 29.3225 996.397 25.7896C996.397 22.2719 992.124 19.4391 986.783 19.4391ZM1078.27 130.57V68.4846H1170.18C1174.46 68.4846 1177.67 66.3627 1177.67 63.5429C1177.67 61.0749 1174.46 58.9586 1170.18 58.9586H1078.27V15.9175C1078.27 13.4438 1075.07 11.3332 1070.79 11.3332C1067.05 11.3332 1063.84 13.4438 1063.84 15.9175V148.215C1063.84 181.382 1104.99 208.546 1155.22 208.546H1175.53C1179.27 208.546 1182.48 206.424 1182.48 203.956C1182.48 201.136 1179.27 199.02 1175.53 199.02H1155.22C1113 199.02 1078.27 176.089 1078.27 148.216V130.573V130.57ZM1440.19 96.0016C1440.19 94.5889 1440.72 93.5279 1440.72 92.4726C1440.72 85.0657 1434.31 76.5956 1426.29 70.9532L1424.69 69.8979C1414.54 63.1923 1400.64 59.3167 1386.21 59.3167H1299.11C1269.72 59.3167 1244.06 75.1869 1244.06 95.6499C1244.06 138.691 1334.91 136.571 1381.41 142.576C1403.31 145.396 1431.64 151.747 1431.64 172.212C1431.64 186.673 1413.47 198.666 1391.56 198.666H1296.44C1277.73 198.666 1256.89 188.438 1256.89 175.735C1256.89 174.68 1256.89 173.625 1256.89 171.86C1256.89 169.04 1253.69 166.918 1249.42 166.918C1242.46 166.918 1241.93 172.558 1241.93 176.092C1241.93 193.381 1268.65 208.55 1296.44 208.55H1391.56C1422.56 208.55 1446.6 191.614 1446.6 172.215C1446.6 108.355 1259.03 149.284 1259.03 95.6521C1259.03 81.1844 1277.2 69.1916 1299.11 69.1916H1386.21C1396.9 69.1916 1407.06 72.0114 1414.54 76.9536L1416.67 78.3607C1421.48 82.2471 1425.76 88.2424 1425.76 92.8284C1425.76 93.5319 1425.76 94.5929 1425.76 96.0056C1425.76 98.4736 1428.97 100.59 1432.7 100.59C1436.98 100.59 1440.19 98.4679 1440.19 96.0056L1440.19 96.0016Z" stroke="#00467E" stroke-width="16.9985"/>
<path d="M729.886 286.072C730.601 285.763 731.361 285.524 732.167 285.368C732.973 285.198 733.801 285.118 734.658 285.118H773.643V277.688H734.658C733.33 277.688 732.031 277.813 730.771 278.052C729.512 278.302 728.286 278.676 727.095 279.187C725.903 279.698 724.774 280.31 723.73 281.014C722.675 281.728 721.71 282.523 720.82 283.408C719.935 284.293 719.14 285.246 718.425 286.279C717.722 287.3 717.109 288.412 716.599 289.609C716.087 290.801 715.702 292.026 715.43 293.303C715.169 294.562 715.032 295.878 715.032 297.246V305.287C715.032 306.615 715.168 307.914 715.43 309.173C715.702 310.433 716.088 311.664 716.599 312.856C717.108 314.047 717.711 315.176 718.391 316.22C719.084 317.275 719.867 318.24 720.757 319.125C721.642 320.01 722.607 320.804 723.668 321.519C724.712 322.223 725.835 322.835 727.032 323.346C728.224 323.857 729.449 324.243 730.726 324.515C731.985 324.776 733.302 324.913 734.669 324.913H773.654V317.416H734.669C733.852 317.416 733.052 317.335 732.275 317.166C731.503 317.005 730.749 316.768 730.039 316.462C729.29 316.157 728.598 315.781 727.946 315.35C727.299 314.908 726.698 314.42 726.147 313.875C725.569 313.33 725.058 312.74 724.615 312.088C724.173 311.452 723.798 310.772 723.492 310.057C723.186 309.342 722.947 308.593 722.788 307.821C722.619 307.038 722.538 306.244 722.538 305.427V305.087H773.656V297.589H722.538V297.249C722.538 296.398 722.619 295.581 722.788 294.793C722.947 294.01 723.186 293.261 723.492 292.546C723.8 291.831 724.173 291.15 724.604 290.503C725.047 289.857 725.535 289.244 726.079 288.665C726.624 288.12 727.214 287.633 727.861 287.19C728.496 286.759 729.177 286.384 729.897 286.078L729.886 286.072ZM820.535 324.92L855.908 277.755H846.64C844.319 280.791 842.005 283.867 839.675 287.003C837.36 290.134 835.017 293.329 832.666 296.567C830.317 299.801 827.962 303.007 825.612 306.154C823.263 309.315 820.908 312.414 818.558 315.447L790.817 277.755H781.686L816.65 324.92H820.537H820.535ZM862.995 312.789C863.065 314.695 863.541 316.403 864.425 317.901C864.868 318.649 865.39 319.342 865.991 319.988C866.592 320.624 867.251 321.203 867.965 321.713C868.68 322.224 869.429 322.678 870.223 323.086C871.006 323.484 871.846 323.824 872.737 324.096C873.588 324.368 874.45 324.572 875.335 324.709C876.209 324.845 877.094 324.914 877.985 324.914H921.605V317.622H878.327C877.407 317.622 876.528 317.507 875.7 317.269C874.871 317.043 874.066 316.701 873.283 316.259C872.5 315.816 871.853 315.283 871.348 314.67C870.837 314.057 870.486 313.365 870.281 312.576V307.056H907.564C908.586 307.056 909.584 306.953 910.571 306.759C911.547 306.556 912.506 306.272 913.425 305.897C914.344 305.522 915.218 305.08 916.041 304.558C916.858 304.046 917.618 303.446 918.333 302.759C919.048 302.112 919.683 301.398 920.228 300.626C920.784 299.843 921.26 299.015 921.669 298.124C922.486 296.354 922.894 294.447 922.894 292.399C922.894 291.411 922.792 290.447 922.589 289.488C922.383 288.546 922.077 287.627 921.67 286.742C920.853 284.966 919.763 283.4 918.396 282.039C917.681 281.392 916.932 280.802 916.138 280.268C915.332 279.734 914.481 279.281 913.562 278.907C912.643 278.532 911.712 278.249 910.759 278.044C909.806 277.852 908.824 277.749 907.837 277.749H878.325C877.304 277.749 876.306 277.841 875.313 278.01C874.337 278.191 873.384 278.464 872.465 278.839C871.545 279.214 870.677 279.656 869.86 280.166C869.055 280.678 868.306 281.256 867.625 281.902C866.91 282.549 866.275 283.241 865.73 283.996C865.174 284.745 864.697 285.551 864.289 286.402C863.846 287.287 863.517 288.2 863.313 289.119C863.096 290.05 862.993 291.003 862.993 291.99V312.779L862.995 312.789ZM907.571 285.115C908.083 285.115 908.592 285.159 909.103 285.264C909.615 285.354 910.124 285.49 910.635 285.662C911.111 285.832 911.565 286.046 912.008 286.309C912.439 286.57 912.848 286.854 913.222 287.16C913.597 287.5 913.926 287.864 914.209 288.238C914.493 288.624 914.755 289.032 914.992 289.475C915.195 289.919 915.354 290.394 915.457 290.882C915.56 291.382 915.604 291.892 915.604 292.402C915.604 293.424 915.401 294.377 914.992 295.268C914.753 295.71 914.491 296.13 914.22 296.527C913.936 296.925 913.63 297.276 913.29 297.582C912.914 297.891 912.518 298.173 912.109 298.434C911.69 298.694 911.247 298.909 910.77 299.08C910.293 299.284 909.817 299.431 909.329 299.534C908.852 299.636 908.354 299.692 907.843 299.692H870.288V292.195C870.288 291.174 870.56 290.221 871.105 289.33C871.343 288.888 871.627 288.479 871.967 288.105C872.295 287.729 872.67 287.39 873.079 287.083C873.896 286.471 874.781 285.994 875.74 285.654C876.184 285.481 876.625 285.345 877.056 285.256C877.498 285.153 877.919 285.106 878.327 285.106H907.566L907.571 285.115ZM944.376 324.92V297.043C944.376 296.226 944.454 295.432 944.626 294.649C944.785 293.877 945.024 293.128 945.33 292.414C945.636 291.699 946.011 291.029 946.442 290.416C946.886 289.792 947.372 289.214 947.917 288.669C948.429 288.124 949.012 287.636 949.642 287.194C950.266 286.763 950.947 286.388 951.667 286.082C952.382 285.774 953.119 285.548 953.868 285.412C954.629 285.263 955.412 285.195 956.234 285.195H989.903V277.836H956.234C954.907 277.836 953.607 277.959 952.359 278.197C951.1 278.448 949.891 278.822 948.734 279.332C947.576 279.843 946.487 280.456 945.472 281.148C944.45 281.851 943.52 282.64 942.669 283.491C941.818 284.342 941.057 285.278 940.377 286.294C939.696 287.304 939.094 288.393 938.578 289.556C938.067 290.748 937.693 291.962 937.443 293.204C937.204 294.447 937.08 295.723 937.08 297.057V324.933H944.372L944.376 324.92ZM1046.68 277.755V298.678H1016.76C1015.98 298.678 1015.22 298.6 1014.47 298.431C1013.72 298.27 1012.97 298.033 1012.26 297.727C1011.55 297.421 1010.86 297.046 1010.24 296.615C1009.6 296.172 1009.03 295.685 1008.52 295.14C1007.97 294.595 1007.49 294.005 1007.07 293.353C1006.67 292.717 1006.3 292.036 1006 291.322C1005.69 290.607 1005.45 289.858 1005.29 289.086C1005.12 288.326 1005.04 287.543 1005.04 286.76V277.763H997.75V286.76C997.75 288.088 997.874 289.37 998.113 290.601C998.361 291.838 998.738 293.029 999.248 294.192C999.76 295.384 1000.36 296.485 1001.05 297.512C1001.74 298.533 1002.52 299.475 1003.41 300.326C1004.26 301.177 1005.19 301.937 1006.21 302.618C1007.22 303.299 1008.31 303.9 1009.47 304.416C1010.63 304.926 1011.83 305.313 1013.06 305.585C1014.29 305.846 1015.58 305.983 1016.9 305.983H1046.69C1046.62 307.549 1046.28 309.052 1045.67 310.482C1045.36 311.197 1044.99 311.878 1044.57 312.502C1044.14 313.137 1043.66 313.722 1043.15 314.227C1042.6 314.738 1042.03 315.191 1041.4 315.605C1040.79 316.014 1040.12 316.377 1039.4 316.683C1038.69 316.99 1037.94 317.229 1037.17 317.387C1036.4 317.559 1035.62 317.637 1034.84 317.637H1001.17V324.93H1034.84C1036.16 324.93 1037.45 324.805 1038.69 324.566C1039.93 324.315 1041.14 323.941 1042.34 323.431C1043.49 322.92 1044.58 322.319 1045.6 321.632C1046.62 320.94 1047.55 320.157 1048.4 319.266C1049.25 318.415 1050.02 317.485 1050.71 316.464C1051.39 315.454 1051.98 314.364 1052.49 313.207C1053 312.05 1053.38 310.852 1053.63 309.616C1053.87 308.39 1053.99 307.102 1053.99 305.775V277.762H1046.7L1046.68 277.755ZM1086.48 324.92H1154.57V277.755H1147.28V317.627H1116.68V277.755H1109.32V317.627H1086.35C1085.57 317.627 1084.81 317.549 1084.06 317.377C1083.31 317.218 1082.56 316.979 1081.85 316.673C1081.13 316.368 1080.45 315.992 1079.83 315.561C1079.19 315.117 1078.62 314.631 1078.1 314.08C1077.56 313.535 1077.08 312.946 1076.66 312.299C1076.26 311.663 1075.89 310.983 1075.59 310.268C1075.28 309.553 1075.04 308.804 1074.88 308.032C1074.71 307.272 1074.63 306.489 1074.63 305.701V277.757H1067.34V305.701C1067.34 307.028 1067.46 308.316 1067.7 309.542C1067.95 310.778 1068.33 311.976 1068.84 313.133C1069.35 314.324 1069.95 315.431 1070.64 316.452C1071.33 317.473 1072.11 318.415 1073 319.266C1073.85 320.117 1074.78 320.883 1075.8 321.564C1076.81 322.245 1077.9 322.846 1079.06 323.357C1080.22 323.868 1081.42 324.253 1082.65 324.526C1083.88 324.787 1085.17 324.923 1086.49 324.923L1086.48 324.92ZM1214.35 279.868C1213.16 279.357 1211.94 278.983 1210.7 278.733C1209.46 278.496 1208.18 278.371 1206.85 278.371H1188.99C1187.87 278.371 1186.76 278.461 1185.68 278.632C1184.61 278.813 1183.57 279.086 1182.59 279.461C1181.6 279.836 1180.64 280.278 1179.73 280.788C1178.81 281.3 1177.95 281.878 1177.13 282.525V268.211H1169.84V324.918H1177.13V297.656C1177.13 296.839 1177.21 296.045 1177.38 295.262C1177.54 294.49 1177.78 293.741 1178.09 293.026C1178.39 292.312 1178.76 291.631 1179.17 290.995C1179.57 290.348 1180.03 289.753 1180.54 289.208C1181.05 288.663 1181.63 288.175 1182.26 287.733C1182.89 287.302 1183.57 286.927 1184.29 286.621C1185 286.313 1185.75 286.087 1186.54 285.951C1187.32 285.804 1188.14 285.735 1188.99 285.735H1206.85C1207.66 285.735 1208.46 285.804 1209.24 285.951C1210.01 286.088 1210.77 286.313 1211.48 286.621C1212.19 286.927 1212.87 287.279 1213.51 287.688C1214.16 288.096 1214.75 288.561 1215.3 289.072C1215.81 289.617 1216.28 290.207 1216.71 290.859C1217.13 291.495 1217.51 292.175 1217.82 292.89C1218.12 293.605 1218.36 294.365 1218.52 295.171C1218.69 295.977 1218.77 296.805 1218.77 297.662V324.924H1226.06V297.662C1226.06 296.334 1225.94 295.046 1225.7 293.809C1225.45 292.573 1225.07 291.353 1224.56 290.161C1224.05 289.004 1223.45 287.914 1222.76 286.905C1222.07 285.883 1221.29 284.953 1220.4 284.102C1219.55 283.217 1218.62 282.422 1217.6 281.708C1216.59 281.004 1215.5 280.391 1214.34 279.881L1214.35 279.868ZM1239.22 312.789C1239.29 314.695 1239.77 316.403 1240.65 317.901C1241.1 318.649 1241.62 319.342 1242.22 319.988C1242.82 320.624 1243.48 321.203 1244.19 321.713C1244.91 322.224 1245.66 322.678 1246.45 323.086C1247.24 323.484 1248.08 323.824 1248.97 324.096C1249.82 324.368 1250.68 324.572 1251.56 324.709C1252.44 324.845 1253.32 324.914 1254.21 324.914H1297.83V317.622H1254.56C1253.64 317.622 1252.76 317.507 1251.93 317.269C1251.1 317.043 1250.29 316.701 1249.51 316.259C1248.73 315.816 1248.08 315.283 1247.58 314.67C1247.07 314.057 1246.71 313.365 1246.51 312.576V307.056H1283.79C1284.81 307.056 1285.81 306.953 1286.8 306.759C1287.78 306.556 1288.74 306.272 1289.65 305.897C1290.57 305.522 1291.45 305.08 1292.27 304.558C1293.09 304.046 1293.85 303.446 1294.56 302.759C1295.28 302.112 1295.91 301.398 1296.46 300.626C1297.01 299.843 1297.49 299.015 1297.9 298.124C1298.72 296.354 1299.12 294.447 1299.12 292.399C1299.12 291.411 1299.02 290.447 1298.82 289.488C1298.61 288.546 1298.31 287.627 1297.9 286.742C1297.08 284.966 1295.99 283.4 1294.62 282.039C1293.91 281.392 1293.16 280.802 1292.37 280.268C1291.56 279.734 1290.71 279.281 1289.79 278.907C1288.87 278.532 1287.94 278.249 1286.99 278.044C1286.04 277.852 1285.05 277.749 1284.07 277.749H1254.55C1253.53 277.749 1252.53 277.841 1251.54 278.01C1250.57 278.191 1249.61 278.464 1248.69 278.839C1247.77 279.214 1246.91 279.656 1246.09 280.166C1245.28 280.678 1244.53 281.256 1243.85 281.902C1243.14 282.549 1242.5 283.241 1241.96 283.996C1241.4 284.745 1240.93 285.551 1240.52 286.402C1240.08 287.287 1239.75 288.2 1239.54 289.119C1239.33 290.05 1239.22 291.003 1239.22 291.99V312.779L1239.22 312.789ZM1283.8 285.115C1284.31 285.115 1284.82 285.159 1285.33 285.264C1285.84 285.354 1286.35 285.49 1286.86 285.662C1287.34 285.832 1287.79 286.046 1288.24 286.309C1288.67 286.57 1289.08 286.854 1289.45 287.16C1289.83 287.5 1290.15 287.864 1290.44 288.238C1290.72 288.624 1290.98 289.032 1291.22 289.475C1291.42 289.919 1291.58 290.394 1291.69 290.882C1291.79 291.382 1291.83 291.892 1291.83 292.402C1291.83 293.424 1291.63 294.377 1291.22 295.268C1290.98 295.71 1290.72 296.13 1290.45 296.527C1290.17 296.925 1289.86 297.276 1289.52 297.582C1289.14 297.891 1288.75 298.173 1288.34 298.434C1287.92 298.694 1287.48 298.909 1287 299.08C1286.52 299.284 1286.05 299.431 1285.56 299.534C1285.08 299.636 1284.58 299.692 1284.07 299.692H1246.52V292.195C1246.52 291.174 1246.79 290.221 1247.33 289.33C1247.57 288.888 1247.86 288.479 1248.2 288.105C1248.52 287.729 1248.9 287.39 1249.31 287.083C1250.13 286.471 1251.01 285.994 1251.97 285.654C1252.41 285.481 1252.85 285.345 1253.29 285.256C1253.73 285.153 1254.15 285.106 1254.56 285.106H1283.79L1283.8 285.115ZM1320.61 324.92V297.043C1320.61 296.226 1320.68 295.432 1320.86 294.649C1321.01 293.877 1321.25 293.128 1321.56 292.414C1321.87 291.699 1322.24 291.029 1322.67 290.416C1323.12 289.792 1323.6 289.214 1324.15 288.669C1324.66 288.124 1325.24 287.636 1325.87 287.194C1326.49 286.763 1327.18 286.388 1327.9 286.082C1328.61 285.774 1329.35 285.548 1330.1 285.412C1330.86 285.263 1331.64 285.195 1332.46 285.195H1366.13V277.836H1332.46C1331.14 277.836 1329.84 277.959 1328.59 278.197C1327.33 278.448 1326.12 278.822 1324.96 279.332C1323.81 279.843 1322.72 280.456 1321.7 281.148C1320.68 281.851 1319.75 282.64 1318.9 283.491C1318.05 284.342 1317.29 285.278 1316.61 286.294C1315.92 287.304 1315.32 288.393 1314.81 289.556C1314.3 290.748 1313.92 291.962 1313.67 293.204C1313.43 294.447 1313.31 295.723 1313.31 297.057V324.933H1320.6L1320.61 324.92ZM1374.04 312.789C1374.11 314.695 1374.58 316.403 1375.47 317.901C1375.91 318.649 1376.43 319.342 1377.04 319.988C1377.64 320.624 1378.29 321.203 1379.01 321.713C1379.72 322.224 1380.47 322.678 1381.27 323.086C1382.05 323.484 1382.89 323.824 1383.78 324.096C1384.63 324.368 1385.49 324.572 1386.38 324.709C1387.25 324.845 1388.14 324.914 1389.03 324.914H1432.65V317.622H1389.37C1388.45 317.622 1387.57 317.507 1386.74 317.269C1385.92 317.043 1385.11 316.701 1384.33 316.259C1383.54 315.816 1382.9 315.283 1382.39 314.67C1381.88 314.057 1381.53 313.365 1381.33 312.576V307.056H1418.61C1419.63 307.056 1420.63 306.953 1421.62 306.759C1422.59 306.556 1423.55 306.272 1424.47 305.897C1425.39 305.522 1426.26 305.08 1427.09 304.558C1427.9 304.046 1428.66 303.446 1429.38 302.759C1430.09 302.112 1430.73 301.398 1431.27 300.626C1431.83 299.843 1432.3 299.015 1432.71 298.124C1433.53 296.354 1433.94 294.447 1433.94 292.399C1433.94 291.411 1433.84 290.447 1433.63 289.488C1433.43 288.546 1433.12 287.627 1432.71 286.742C1431.9 284.966 1430.81 283.4 1429.44 282.039C1428.73 281.392 1427.98 280.802 1427.18 280.268C1426.38 279.734 1425.53 279.281 1424.61 278.907C1423.69 278.532 1422.76 278.249 1421.8 278.044C1420.85 277.852 1419.87 277.749 1418.88 277.749H1389.37C1388.35 277.749 1387.35 277.841 1386.36 278.01C1385.38 278.191 1384.43 278.464 1383.51 278.839C1382.59 279.214 1381.72 279.656 1380.9 280.166C1380.1 280.678 1379.35 281.256 1378.67 281.902C1377.95 282.549 1377.32 283.241 1376.77 283.996C1376.22 284.745 1375.74 285.551 1375.33 286.402C1374.89 287.287 1374.56 288.2 1374.36 289.119C1374.14 290.05 1374.04 291.003 1374.04 291.99V312.779L1374.04 312.789ZM1418.62 285.115C1419.13 285.115 1419.64 285.159 1420.15 285.264C1420.66 285.354 1421.17 285.49 1421.68 285.662C1422.16 285.832 1422.61 286.046 1423.05 286.309C1423.48 286.57 1423.89 286.854 1424.27 287.16C1424.64 287.5 1424.97 287.864 1425.25 288.238C1425.54 288.624 1425.8 289.032 1426.04 289.475C1426.24 289.919 1426.4 290.394 1426.5 290.882C1426.6 291.382 1426.65 291.892 1426.65 292.402C1426.65 293.424 1426.45 294.377 1426.04 295.268C1425.8 295.71 1425.54 296.13 1425.26 296.527C1424.98 296.925 1424.67 297.276 1424.33 297.582C1423.96 297.891 1423.56 298.173 1423.15 298.434C1422.73 298.694 1422.29 298.909 1421.81 299.08C1421.34 299.284 1420.86 299.431 1420.37 299.534C1419.9 299.636 1419.4 299.692 1418.89 299.692H1381.33V292.195C1381.33 291.174 1381.6 290.221 1382.15 289.33C1382.39 288.888 1382.67 288.479 1383.01 288.105C1383.34 287.729 1383.71 287.39 1384.12 287.083C1384.94 286.471 1385.83 285.994 1386.78 285.654C1387.22 285.481 1387.66 285.345 1388.09 285.256C1388.54 285.153 1388.96 285.106 1389.37 285.106H1418.6L1418.62 285.115Z" fill="#00467E"/>
<path d="M730.198 286.321C731.628 285.708 733.268 285.368 734.97 285.368H773.955V277.937H734.97C732.309 277.937 729.79 278.41 727.406 279.435C725.023 280.456 722.907 281.891 721.132 283.656C719.362 285.432 717.932 287.48 716.911 289.866C715.884 292.248 715.339 294.773 715.339 297.494V305.539C715.339 308.195 715.884 310.719 716.911 313.105C717.932 315.494 719.293 317.604 721.064 319.377C722.839 321.153 724.95 322.577 727.334 323.599C729.717 324.62 732.241 325.164 734.969 325.164H773.954V317.662H734.969C733.335 317.662 731.763 317.324 730.333 316.709C728.83 316.101 727.536 315.211 726.447 314.121C725.284 313.038 724.399 311.733 723.786 310.297C723.173 308.873 722.833 307.302 722.833 305.662V305.322H773.949V297.828H722.833V297.482C722.833 295.78 723.174 294.214 723.786 292.778C724.399 291.354 725.284 290.061 726.373 288.892C727.468 287.803 728.756 286.923 730.191 286.305L730.198 286.321ZM820.172 325.17L855.545 278.007H846.277C841.642 284.067 837.011 290.339 832.307 296.817C827.604 303.286 822.897 309.63 818.193 315.696L790.456 278.007H781.323L816.287 325.17H820.174H820.172ZM862.63 313.043C862.693 314.949 863.173 316.651 864.055 318.149C864.945 319.647 866.177 320.946 867.601 321.962C869.036 322.989 870.602 323.806 872.372 324.35C874.074 324.893 875.85 325.167 877.62 325.167H921.235V317.879H877.959C876.116 317.879 874.481 317.397 872.916 316.512C871.35 315.621 870.323 314.401 869.914 312.824V307.309H907.195C909.243 307.309 911.218 306.898 913.056 306.152C914.9 305.403 916.54 304.376 917.964 303.014C919.399 301.721 920.483 300.155 921.306 298.379C922.123 296.603 922.537 294.697 922.537 292.65C922.537 290.675 922.129 288.763 921.306 286.993C920.489 285.228 919.4 283.651 918.038 282.295C916.602 280.996 915.036 279.907 913.198 279.158C911.354 278.403 909.448 278 907.469 278H877.959C875.917 278 873.937 278.34 872.096 279.09C870.258 279.839 868.618 280.865 867.256 282.153C865.821 283.453 864.737 284.95 863.914 286.653C863.029 288.423 862.621 290.261 862.621 292.241V313.037L862.63 313.043ZM907.2 285.367C908.221 285.367 909.248 285.572 910.269 285.91C911.222 286.249 912.107 286.795 912.856 287.408C913.611 288.094 914.155 288.843 914.626 289.722C915.037 290.613 915.245 291.634 915.245 292.656C915.245 293.683 915.039 294.636 914.626 295.515C914.155 296.406 913.611 297.223 912.924 297.836C912.175 298.443 911.358 298.993 910.405 299.333C909.452 299.742 908.499 299.946 907.472 299.946H869.917V292.443C869.917 291.428 870.191 290.475 870.734 289.584C871.214 288.699 871.891 287.944 872.708 287.337C873.525 286.724 874.41 286.242 875.363 285.902C876.254 285.564 877.139 285.359 877.956 285.359H907.191L907.2 285.367ZM944.715 325.169V297.288C944.715 295.659 945.054 294.088 945.668 292.652C946.281 291.228 947.166 289.997 948.261 288.902C949.276 287.813 950.575 286.933 952.005 286.315C953.441 285.702 954.939 285.424 956.578 285.424H990.24V278.064H956.578C953.912 278.064 951.392 278.545 949.075 279.568C946.76 280.583 944.718 282.019 943.015 283.721C941.308 285.423 939.946 287.471 938.919 289.79C937.903 292.173 937.421 294.63 937.421 297.282V325.163H944.716L944.715 325.169ZM1047.03 278.007V298.927H1017.12C1015.54 298.927 1014.04 298.59 1012.61 297.974C1011.18 297.362 1009.9 296.476 1008.87 295.381C1007.77 294.292 1006.96 292.999 1006.35 291.569C1005.74 290.133 1005.4 288.567 1005.4 286.996V278.005H998.102V286.996C998.102 289.662 998.582 292.113 999.599 294.427C1000.62 296.816 1001.99 298.858 1003.76 300.565C1005.46 302.267 1007.51 303.629 1009.83 304.645C1012.14 305.672 1014.59 306.211 1017.26 306.211H1047.03C1046.97 307.788 1046.63 309.286 1046.02 310.71C1045.41 312.145 1044.51 313.433 1043.5 314.46C1042.4 315.487 1041.18 316.304 1039.75 316.917C1038.31 317.524 1036.75 317.87 1035.18 317.87H1001.51V325.158H1035.18C1037.84 325.158 1040.29 324.678 1042.68 323.66C1044.99 322.639 1047.03 321.277 1048.75 319.502C1050.45 317.8 1051.81 315.751 1052.84 313.433C1053.85 311.118 1054.33 308.667 1054.33 306.01V277.997H1047.04L1047.03 278.007ZM1086.86 325.169H1154.95V278.007H1147.66V317.88H1117.06V278.007H1109.7V317.88H1086.73C1085.16 317.88 1083.67 317.532 1082.23 316.927C1080.8 316.314 1079.5 315.423 1078.48 314.334C1077.4 313.239 1076.57 311.946 1075.97 310.51C1075.35 309.086 1075.01 307.514 1075.01 305.949V278.005H1067.72V305.949C1067.72 308.604 1068.2 311.06 1069.22 313.378C1070.24 315.76 1071.6 317.809 1073.37 319.509C1075.08 321.211 1077.12 322.573 1079.44 323.6C1081.76 324.621 1084.21 325.166 1086.87 325.166L1086.86 325.169ZM1214.39 280.117C1212.01 279.096 1209.55 278.619 1206.89 278.619H1189.04C1186.78 278.619 1184.61 278.959 1182.63 279.709C1180.66 280.458 1178.81 281.484 1177.18 282.772V268.464H1169.88V325.168H1177.18V297.904C1177.18 296.27 1177.52 294.704 1178.13 293.269C1178.74 291.833 1179.55 290.545 1180.58 289.456C1181.6 288.361 1182.9 287.476 1184.33 286.863C1185.76 286.25 1187.33 285.978 1189.04 285.978H1206.89C1208.53 285.978 1210.09 286.246 1211.53 286.863C1212.96 287.476 1214.26 288.298 1215.34 289.314C1216.36 290.409 1217.25 291.703 1217.86 293.138C1218.47 294.568 1218.81 296.207 1218.81 297.91V325.174H1226.11V297.91C1226.11 295.254 1225.63 292.792 1224.61 290.415C1223.58 288.1 1222.22 286.047 1220.45 284.346C1218.75 282.576 1216.7 281.141 1214.38 280.125L1214.39 280.117ZM1239.29 313.042C1239.36 314.949 1239.84 316.651 1240.72 318.148C1241.61 319.646 1242.85 320.946 1244.27 321.961C1245.71 322.988 1247.27 323.805 1249.05 324.35C1250.75 324.893 1252.53 325.167 1254.3 325.167H1297.91V317.878H1254.63C1252.79 317.878 1251.16 317.396 1249.59 316.511C1248.02 315.62 1247 314.4 1246.59 312.823V307.309H1283.87C1285.91 307.309 1287.89 306.897 1289.73 306.151C1291.57 305.402 1293.21 304.375 1294.64 303.014C1296.07 301.72 1297.16 300.154 1297.98 298.378C1298.8 296.602 1299.21 294.696 1299.21 292.649C1299.21 290.675 1298.8 288.763 1297.98 286.992C1297.16 285.228 1296.07 283.651 1294.71 282.295C1293.28 280.995 1291.71 279.906 1289.87 279.157C1288.03 278.403 1286.12 278 1284.14 278H1254.63C1252.59 278 1250.61 278.34 1248.77 279.089C1246.93 279.838 1245.29 280.865 1243.93 282.153C1242.49 283.452 1241.41 284.95 1240.59 286.652C1239.7 288.422 1239.29 290.26 1239.29 292.241V313.037L1239.29 313.042ZM1283.86 285.366C1284.89 285.366 1285.91 285.572 1286.94 285.909C1287.89 286.249 1288.78 286.794 1289.53 287.407C1290.28 288.093 1290.82 288.842 1291.3 289.722C1291.71 290.613 1291.91 291.634 1291.91 292.655C1291.91 293.682 1291.71 294.635 1291.3 295.515C1290.83 296.405 1290.29 297.222 1289.6 297.835C1288.85 298.442 1288.03 298.993 1287.08 299.333C1286.13 299.741 1285.17 299.946 1284.15 299.946H1246.59V292.443C1246.59 291.427 1246.87 290.474 1247.41 289.583C1247.89 288.698 1248.57 287.944 1249.39 287.337C1250.21 286.724 1251.09 286.242 1252.04 285.901C1252.93 285.564 1253.81 285.358 1254.64 285.358H1283.87L1283.86 285.366ZM1320.59 325.168V297.287C1320.59 295.659 1320.93 294.087 1321.55 292.652C1322.16 291.228 1323.04 289.997 1324.14 288.902C1325.15 287.812 1326.45 286.933 1327.88 286.314C1329.32 285.702 1330.82 285.424 1332.46 285.424H1366.12V278.064H1332.46C1329.79 278.064 1327.27 278.544 1324.95 279.567C1322.64 280.583 1320.6 282.018 1318.89 283.72C1317.18 285.423 1315.82 287.471 1314.8 289.79C1313.78 292.172 1313.3 294.629 1313.3 297.282V325.163H1320.59L1320.59 325.168ZM1374.04 313.042C1374.11 314.948 1374.59 316.65 1375.47 318.148C1376.36 319.646 1377.59 320.945 1379.02 321.961C1380.45 322.988 1382.02 323.804 1383.8 324.349C1385.5 324.892 1387.27 325.166 1389.04 325.166H1432.66V317.878H1389.38C1387.54 317.878 1385.91 317.396 1384.34 316.511C1382.77 315.62 1381.74 314.4 1381.34 312.823V307.308H1418.61C1420.66 307.308 1422.64 306.897 1424.48 306.15C1426.32 305.402 1427.96 304.375 1429.38 303.013C1430.82 301.719 1431.9 300.153 1432.73 298.378C1433.54 296.602 1433.96 294.695 1433.96 292.648C1433.96 290.674 1433.55 288.762 1432.73 286.992C1431.91 285.227 1430.82 283.65 1429.46 282.294C1428.02 280.995 1426.46 279.905 1424.62 279.157C1422.78 278.402 1420.87 277.999 1418.89 277.999H1389.38C1387.34 277.999 1385.36 278.339 1383.52 279.089C1381.68 279.837 1380.04 280.864 1378.68 282.152C1377.24 283.452 1376.16 284.949 1375.34 286.651C1374.45 288.422 1374.04 290.26 1374.04 292.24V313.036L1374.04 313.042ZM1418.61 285.366C1419.64 285.366 1420.66 285.571 1421.69 285.909C1422.64 286.248 1423.52 286.794 1424.27 287.406C1425.03 288.093 1425.57 288.842 1426.05 289.721C1426.46 290.612 1426.66 291.633 1426.66 292.655C1426.66 293.681 1426.46 294.635 1426.05 295.514C1425.58 296.405 1425.03 297.222 1424.35 297.835C1423.6 298.442 1422.78 298.992 1421.83 299.332C1420.88 299.741 1419.92 299.945 1418.9 299.945H1381.34V292.442C1381.34 291.427 1381.61 290.474 1382.16 289.583C1382.64 288.698 1383.31 287.943 1384.14 287.336C1384.95 286.723 1385.84 286.241 1386.79 285.901C1387.68 285.563 1388.56 285.358 1389.38 285.358H1418.62L1418.61 285.366Z" stroke="#00467E" stroke-width="1.66635"/>
<path d="M530.532 146.688C530.577 145.672 530.622 144.64 530.622 143.585C530.622 101.969 492.799 68.2282 446.143 68.2282C431.115 68.2282 417.009 71.7401 404.775 77.8892C387.609 35.6208 342.222 5.42355 288.924 5.42355C257.538 5.42355 207.222 18.5131 207.231 33.2174C207.335 296.424 318.034 97.6441 306.834 319.451H509.507V318.396C563.287 318.396 606.883 279.507 606.883 231.527C606.883 189.991 574.208 155.28 530.532 146.691L530.532 146.688Z" fill="#00467E"/>
<path d="M530.532 146.688C530.577 145.672 530.622 144.64 530.622 143.585C530.622 101.969 492.799 68.2282 446.143 68.2282C431.115 68.2282 417.009 71.7401 404.775 77.8892C387.609 35.6208 342.222 5.42355 288.924 5.42355C257.538 5.42355 207.222 18.5131 207.231 33.2174C207.335 296.424 318.034 97.6441 306.834 319.451H509.507V318.396C563.287 318.396 606.883 279.507 606.883 231.527C606.883 189.991 574.208 155.28 530.532 146.691L530.532 146.688Z" stroke="#00467E" stroke-width="5.87911"/>
<path d="M374.667 297.998C374.667 312.677 362.652 324.695 347.965 324.695H244.493C229.804 324.695 217.792 312.677 217.792 297.998V194.517C217.792 179.828 229.804 167.813 244.493 167.813H347.965C362.652 167.813 374.667 179.828 374.667 194.517V297.998Z" fill="#00467E"/>
<path d="M374.667 297.998C374.667 312.677 362.652 324.695 347.965 324.695H244.493C229.804 324.695 217.792 312.677 217.792 297.998V194.517C217.792 179.828 229.804 167.813 244.493 167.813H347.965C362.652 167.813 374.667 179.828 374.667 194.517V297.998Z" stroke="#FEFEFE" stroke-width="12.4976"/>
<path d="M264.843 138.972C264.843 154.181 252.401 166.623 237.188 166.623H162.528C147.319 166.623 134.877 154.181 134.877 138.972V64.2924C134.877 49.0854 147.319 36.6415 162.528 36.6415H237.188C252.401 36.6415 264.843 49.0854 264.843 64.2924V138.972Z" fill="#00467E"/>
<path d="M264.843 138.972C264.843 154.181 252.401 166.623 237.188 166.623H162.528C147.319 166.623 134.877 154.181 134.877 138.972V64.2924C134.877 49.0854 147.319 36.6415 162.528 36.6415H237.188C252.401 36.6415 264.843 49.0854 264.843 64.2924V138.972Z" stroke="#FEFEFE" stroke-width="11.7739"/>
<path d="M72.5813 299.461C72.5813 305.206 67.8722 309.91 62.1276 309.91H33.9048C28.1574 309.91 23.4512 305.207 23.4512 299.461V271.243C23.4512 265.491 28.1603 260.787 33.9048 260.787H62.1276C67.875 260.787 72.5813 265.491 72.5813 271.243V299.461Z" fill="#00467E"/>
<path d="M72.5813 299.461C72.5813 305.206 67.8722 309.91 62.1276 309.91H33.9048C28.1574 309.91 23.4512 305.207 23.4512 299.461V271.243C23.4512 265.491 28.1603 260.787 33.9048 260.787H62.1276C67.875 260.787 72.5813 265.491 72.5813 271.243V299.461Z" stroke="#FEFEFE" stroke-width="12.4976"/>
<path d="M126.435 160.458C126.435 168.117 120.172 174.383 112.519 174.383H74.9369C67.2866 174.383 61.0207 168.117 61.0207 160.458V122.862C61.0207 115.212 67.2861 108.946 74.9369 108.946H112.519C120.171 108.946 126.435 115.211 126.435 122.862V160.458Z" fill="#00467E"/>
<path d="M126.435 160.458C126.435 168.117 120.172 174.383 112.519 174.383H74.9369C67.2866 174.383 61.0207 168.117 61.0207 160.458V122.862C61.0207 115.212 67.2861 108.946 74.9369 108.946H112.519C120.171 108.946 126.435 115.211 126.435 122.862V160.458Z" stroke="#FEFEFE" stroke-width="12.4976"/>
<path d="M217.621 313.208C217.621 320.095 211.993 325.722 205.111 325.722H171.317C164.435 325.722 158.806 320.093 158.806 313.208V279.417C158.806 272.53 164.434 266.904 171.317 266.904H205.111C211.993 266.904 217.621 272.532 217.621 279.417V313.208Z" fill="#00467E"/>
<path d="M217.621 313.208C217.621 320.095 211.993 325.722 205.111 325.722H171.317C164.435 325.722 158.806 320.093 158.806 313.208V279.417C158.806 272.53 164.434 266.904 171.317 266.904H205.111C211.993 266.904 217.621 272.532 217.621 279.417V313.208Z" stroke="#FEFEFE" stroke-width="12.4976"/>
<path d="M128.71 230.72C128.71 238.009 122.751 243.975 115.462 243.975H79.7011C72.4105 243.975 66.4509 238.008 66.4509 230.72V194.945C66.4509 187.663 72.4105 181.699 79.7011 181.699H115.462C122.751 181.699 128.71 187.663 128.71 194.945V230.72Z" fill="#00467E"/>
<path d="M128.71 230.72C128.71 238.009 122.751 243.975 115.462 243.975H79.7011C72.4105 243.975 66.4509 238.008 66.4509 230.72V194.945C66.4509 187.663 72.4105 181.699 79.7011 181.699H115.462C122.751 181.699 128.71 187.663 128.71 194.945V230.72Z" stroke="#FEFEFE" stroke-width="12.4976"/>
<path d="M48.0145 245.721C48.0145 250.606 44.0146 254.602 39.1308 254.602H15.1342C10.2492 254.602 6.24878 250.608 6.24878 245.721V221.717C6.24878 216.833 10.2487 212.837 15.1342 212.837H39.1308C44.0157 212.837 48.0145 216.831 48.0145 221.717V245.721Z" fill="#00467E"/>
<path d="M48.0145 245.721C48.0145 250.606 44.0146 254.602 39.1308 254.602H15.1342C10.2492 254.602 6.24878 250.608 6.24878 245.721V221.717C6.24878 216.833 10.2487 212.837 15.1342 212.837H39.1308C44.0157 212.837 48.0145 216.831 48.0145 221.717V245.721Z" stroke="#FEFEFE" stroke-width="12.4976"/>
<path d="M217.792 229.528C217.792 238.733 210.255 246.266 201.05 246.266H155.835C146.628 246.266 139.096 238.733 139.096 229.528V184.289C139.096 175.086 146.628 167.552 155.835 167.552H201.05C210.255 167.552 217.792 175.086 217.792 184.289V229.528Z" fill="#00467E"/>
<path d="M217.792 229.528C217.792 238.733 210.255 246.266 201.05 246.266H155.835C146.628 246.266 139.096 238.733 139.096 229.528V184.289C139.096 175.086 146.628 167.552 155.835 167.552H201.05C210.255 167.552 217.792 175.086 217.792 184.289V229.528Z" stroke="#FEFEFE" stroke-width="12.4976"/>
<path d="M158.809 307.96C158.809 317.165 151.276 324.698 142.069 324.698H96.8524C87.6452 324.698 80.1084 317.165 80.1084 307.96V262.746C80.1084 253.534 87.6452 245.999 96.8524 245.999H142.069C151.276 245.999 158.809 253.533 158.809 262.746V307.96Z" fill="#00467E"/>
<path d="M158.809 307.96C158.809 317.165 151.276 324.698 142.069 324.698H96.8524C87.6452 324.698 80.1084 317.165 80.1084 307.96V262.746C80.1084 253.534 87.6452 245.999 96.8524 245.999H142.069C151.276 245.999 158.809 253.533 158.809 262.746V307.96Z" stroke="#FEFEFE" stroke-width="12.4976"/>
</svg>
